<svg width="295" height="45" viewBox="0 0 295 45" fill="none" xmlns="http://www.w3.org/2000/svg">
<path d="M5.69531 22.9141C7.30469 23.0703 8.51562 23.6641 9.32812 24.6953C10.1562 25.7109 10.5703 27.1172 10.5703 28.9141V35.0078C10.5703 35.9297 10.6484 36.6953 10.8047 37.3047C10.9766 37.9141 11.2578 38.3984 11.6484 38.7578C12.0391 39.1328 12.5547 39.3984 13.1953 39.5547C13.8359 39.7109 14.6328 39.7891 15.5859 39.7891H16.6406V44.9219H14.1797C12.3984 44.9219 10.8672 44.75 9.58594 44.4062C8.30469 44.0625 7.25 43.5234 6.42188 42.7891C5.60938 42.0703 5.00781 41.1406 4.61719 40C4.22656 38.8594 4.03125 37.4922 4.03125 35.8984V30.7891C4.03125 29.8828 3.96094 29.125 3.82031 28.5156C3.69531 27.8906 3.47656 27.3906 3.16406 27.0156C2.86719 26.625 2.46094 26.3516 1.94531 26.1953C1.44531 26.0234 0.828125 25.9375 0.09375 25.9375V19.4453C0.828125 19.4453 1.44531 19.3672 1.94531 19.2109C2.46094 19.0391 2.86719 18.7656 3.16406 18.3906C3.47656 18 3.69531 17.5 3.82031 16.8906C3.96094 16.2656 4.03125 15.4922 4.03125 14.5703V10.2344C4.03125 8.67188 4.22656 7.33594 4.61719 6.22656C5.00781 5.11719 5.60938 4.21094 6.42188 3.50781C7.25 2.78906 8.30469 2.26562 9.58594 1.9375C10.8672 1.59375 12.3984 1.42188 14.1797 1.42188H16.6406V6.57812H15.5859C14.6328 6.57812 13.8359 6.65625 13.1953 6.8125C12.5547 6.96875 12.0391 7.23438 11.6484 7.60938C11.2578 7.96875 10.9766 8.46094 10.8047 9.08594C10.6484 9.69531 10.5703 10.4609 10.5703 11.3828V16.9375C10.5703 18.6562 10.1719 19.9766 9.375 20.8984C8.59375 21.8047 7.36719 22.3359 5.69531 22.4922V22.9141ZM33.4969 11.1484H41.2547L31.4109 22.2344L41.9344 37H33.8484L26.3016 26.5L24.4266 28.4219V37H17.6063V1.28125H24.4266V21.25H24.8484L33.4969 11.1484ZM50.775 32.2656C51.5719 32.2656 52.3063 32.1484 52.9781 31.9141C53.65 31.6797 54.2359 31.3516 54.7359 30.9297C55.2359 30.5078 55.6266 30.0156 55.9078 29.4531C56.1891 28.8906 56.3297 28.2812 56.3297 27.625V25.7266L51.1031 26.0547C48.1969 26.2578 46.7438 27.2969 46.7438 29.1719C46.7438 30.1406 47.1188 30.8984 47.8688 31.4453C48.6188 31.9922 49.5875 32.2656 50.775 32.2656ZM48.525 37.3984C47.275 37.3984 46.1344 37.2188 45.1031 36.8594C44.0719 36.4844 43.1813 35.9609 42.4313 35.2891C41.6813 34.6016 41.0953 33.7812 40.6734 32.8281C40.2672 31.875 40.0641 30.8047 40.0641 29.6172C40.0641 27.2578 40.9234 25.4219 42.6422 24.1094C44.3609 22.7812 46.8375 22.0234 50.0719 21.8359L56.3297 21.4609V19.3516C56.3297 18.2734 55.9547 17.4453 55.2047 16.8672C54.4703 16.2734 53.3922 15.9766 51.9703 15.9766C50.7359 15.9766 49.7203 16.1797 48.9234 16.5859C48.1266 16.9922 47.5875 17.5859 47.3063 18.3672H41.025C41.1344 17.1797 41.4781 16.1094 42.0563 15.1562C42.65 14.1875 43.4391 13.3672 44.4234 12.6953C45.4078 12.0078 46.5641 11.4844 47.8922 11.125C49.2359 10.7656 50.7203 10.5859 52.3453 10.5859C54.0484 10.5859 55.5641 10.7891 56.8922 11.1953C58.2359 11.5859 59.3609 12.1562 60.2672 12.9062C61.1734 13.6562 61.8609 14.5781 62.3297 15.6719C62.8141 16.75 63.0563 17.9766 63.0563 19.3516V37H56.4469V33.625H56.025C55.3531 34.8125 54.3531 35.7422 53.025 36.4141C51.7125 37.0703 50.2125 37.3984 48.525 37.3984ZM73.725 5.00781V11.4062H79.0922V16.7734H73.725V28.3984C73.725 29.5234 73.9906 30.3516 74.5219 30.8828C75.0531 31.4141 75.9047 31.6797 77.0766 31.6797C77.5297 31.6797 77.8969 31.6719 78.1781 31.6562C78.4594 31.6406 78.7641 31.6172 79.0922 31.5859V36.7891C78.6703 36.8672 78.1547 36.9375 77.5453 37C76.9516 37.0625 76.3266 37.0938 75.6703 37.0938C74.0922 37.0938 72.7484 36.9609 71.6391 36.6953C70.5297 36.4297 69.6234 36.0156 68.9203 35.4531C68.2172 34.875 67.7016 34.1406 67.3734 33.25C67.0609 32.3594 66.9047 31.2812 66.9047 30.0156V16.7734H62.8734V11.4062H66.9047V5.00781H73.725ZM79.9875 11.1484H86.5969V15.2734H87.0188C87.1906 14.6328 87.4797 14.0391 87.8859 13.4922C88.2922 12.9297 88.7844 12.4453 89.3625 12.0391C89.9406 11.6328 90.5891 11.3125 91.3078 11.0781C92.0422 10.8438 92.8234 10.7266 93.6516 10.7266C94.1203 10.7266 94.6047 10.7578 95.1047 10.8203C95.6203 10.8672 96.0266 10.9453 96.3234 11.0547V17.2656C96.1828 17.2188 95.9875 17.1719 95.7375 17.125C95.4875 17.0625 95.2141 17.0156 94.9172 16.9844C94.6203 16.9375 94.3078 16.9062 93.9797 16.8906C93.6672 16.8594 93.3703 16.8438 93.0891 16.8438C92.1516 16.8438 91.3 16.9766 90.5344 17.2422C89.7688 17.5078 89.1047 17.8984 88.5422 18.4141C87.9953 18.9141 87.5656 19.5234 87.2531 20.2422C86.9563 20.9609 86.8078 21.7734 86.8078 22.6797V37H79.9875V11.1484ZM96.1406 11.1484H102.961V37H96.1406V11.1484ZM99.5625 7.53906C98.9531 7.53906 98.3984 7.45312 97.8984 7.28125C97.3984 7.10938 96.9688 6.875 96.6094 6.57812C96.2656 6.26562 96 5.89844 95.8125 5.47656C95.625 5.05469 95.5312 4.59375 95.5312 4.09375C95.5312 3.57812 95.625 3.10938 95.8125 2.6875C96 2.26562 96.2656 1.90625 96.6094 1.60938C96.9688 1.29688 97.3984 1.0625 97.8984 0.90625C98.3984 0.734375 98.9531 0.648438 99.5625 0.648438C100.172 0.648438 100.719 0.734375 101.203 0.90625C101.703 1.0625 102.125 1.29688 102.469 1.60938C102.828 1.90625 103.102 2.26562 103.289 2.6875C103.492 3.10938 103.594 3.57812 103.594 4.09375C103.594 4.59375 103.492 5.05469 103.289 5.47656C103.102 5.89844 102.828 6.26562 102.469 6.57812C102.125 6.875 101.703 7.10938 101.203 7.28125C100.719 7.45312 100.172 7.53906 99.5625 7.53906ZM105.075 11.1484H111.684V15.2969H112.106C112.7 13.8281 113.637 12.6797 114.919 11.8516C116.216 11.0078 117.825 10.5859 119.747 10.5859C122.622 10.5859 124.809 11.4297 126.309 13.1172C127.825 14.8047 128.583 17.1953 128.583 20.2891V37H121.762V21.9062C121.762 20.1094 121.372 18.7578 120.591 17.8516C119.825 16.9297 118.63 16.4688 117.005 16.4688C116.208 16.4688 115.497 16.6016 114.872 16.8672C114.247 17.1328 113.708 17.5156 113.255 18.0156C112.817 18.5 112.481 19.0938 112.247 19.7969C112.012 20.4844 111.895 21.25 111.895 22.0938V37H105.075V11.1484ZM139.744 32.2656C140.541 32.2656 141.275 32.1484 141.947 31.9141C142.619 31.6797 143.205 31.3516 143.705 30.9297C144.205 30.5078 144.595 30.0156 144.877 29.4531C145.158 28.8906 145.298 28.2812 145.298 27.625V25.7266L140.072 26.0547C137.166 26.2578 135.712 27.2969 135.712 29.1719C135.712 30.1406 136.087 30.8984 136.837 31.4453C137.587 31.9922 138.556 32.2656 139.744 32.2656ZM137.494 37.3984C136.244 37.3984 135.103 37.2188 134.072 36.8594C133.041 36.4844 132.15 35.9609 131.4 35.2891C130.65 34.6016 130.064 33.7812 129.642 32.8281C129.236 31.875 129.033 30.8047 129.033 29.6172C129.033 27.2578 129.892 25.4219 131.611 24.1094C133.33 22.7812 135.806 22.0234 139.041 21.8359L145.298 21.4609V19.3516C145.298 18.2734 144.923 17.4453 144.173 16.8672C143.439 16.2734 142.361 15.9766 140.939 15.9766C139.705 15.9766 138.689 16.1797 137.892 16.5859C137.095 16.9922 136.556 17.5859 136.275 18.3672H129.994C130.103 17.1797 130.447 16.1094 131.025 15.1562C131.619 14.1875 132.408 13.3672 133.392 12.6953C134.377 12.0078 135.533 11.4844 136.861 11.125C138.205 10.7656 139.689 10.5859 141.314 10.5859C143.017 10.5859 144.533 10.7891 145.861 11.1953C147.205 11.5859 148.33 12.1562 149.236 12.9062C150.142 13.6562 150.83 14.5781 151.298 15.6719C151.783 16.75 152.025 17.9766 152.025 19.3516V37H145.416V33.625H144.994C144.322 34.8125 143.322 35.7422 141.994 36.4141C140.681 37.0703 139.181 37.3984 137.494 37.3984ZM158.85 37.6328C158.225 37.6328 157.655 37.5312 157.139 37.3281C156.639 37.125 156.202 36.8438 155.827 36.4844C155.467 36.125 155.186 35.6953 154.983 35.1953C154.795 34.6953 154.702 34.1484 154.702 33.5547C154.702 32.9609 154.795 32.4219 154.983 31.9375C155.186 31.4375 155.467 31.0078 155.827 30.6484C156.202 30.2891 156.639 30.0078 157.139 29.8047C157.655 29.6016 158.225 29.5 158.85 29.5C159.475 29.5 160.045 29.6016 160.561 29.8047C161.077 30.0078 161.514 30.2891 161.873 30.6484C162.233 31.0078 162.506 31.4375 162.694 31.9375C162.897 32.4219 162.998 32.9609 162.998 33.5547C162.998 34.1484 162.897 34.6953 162.694 35.1953C162.506 35.6953 162.233 36.125 161.873 36.4844C161.514 36.8438 161.077 37.125 160.561 37.3281C160.045 37.5312 159.475 37.6328 158.85 37.6328ZM185.667 28.9375H173.784L171.183 37H164.081L175.823 3.17969H184.144L195.886 37H188.222L185.667 28.9375ZM175.308 23.4766H184.167L179.972 10.2109H179.55L175.308 23.4766ZM196.172 11.1484H202.781V15.2734H203.203C203.375 14.6328 203.664 14.0391 204.07 13.4922C204.477 12.9297 204.969 12.4453 205.547 12.0391C206.125 11.6328 206.773 11.3125 207.492 11.0781C208.227 10.8438 209.008 10.7266 209.836 10.7266C210.305 10.7266 210.789 10.7578 211.289 10.8203C211.805 10.8672 212.211 10.9453 212.508 11.0547V17.2656C212.367 17.2188 212.172 17.1719 211.922 17.125C211.672 17.0625 211.398 17.0156 211.102 16.9844C210.805 16.9375 210.492 16.9062 210.164 16.8906C209.852 16.8594 209.555 16.8438 209.273 16.8438C208.336 16.8438 207.484 16.9766 206.719 17.2422C205.953 17.5078 205.289 17.8984 204.727 18.4141C204.18 18.9141 203.75 19.5234 203.438 20.2422C203.141 20.9609 202.992 21.7734 202.992 22.6797V37H196.172V11.1484ZM212.325 11.1484H219.145V37H212.325V11.1484ZM215.747 7.53906C215.137 7.53906 214.583 7.45312 214.083 7.28125C213.583 7.10938 213.153 6.875 212.794 6.57812C212.45 6.26562 212.184 5.89844 211.997 5.47656C211.809 5.05469 211.716 4.59375 211.716 4.09375C211.716 3.57812 211.809 3.10938 211.997 2.6875C212.184 2.26562 212.45 1.90625 212.794 1.60938C213.153 1.29688 213.583 1.0625 214.083 0.90625C214.583 0.734375 215.137 0.648438 215.747 0.648438C216.356 0.648438 216.903 0.734375 217.387 0.90625C217.887 1.0625 218.309 1.29688 218.653 1.60938C219.012 1.90625 219.286 2.26562 219.473 2.6875C219.677 3.10938 219.778 3.57812 219.778 4.09375C219.778 4.59375 219.677 5.05469 219.473 5.47656C219.286 5.89844 219.012 6.26562 218.653 6.57812C218.309 6.875 217.887 7.10938 217.387 7.28125C216.903 7.45312 216.356 7.53906 215.747 7.53906ZM232.72 31.9844C234.548 31.9844 235.955 31.2969 236.939 29.9219C237.939 28.5312 238.439 26.5781 238.439 24.0625C238.439 22.8281 238.306 21.7188 238.041 20.7344C237.791 19.75 237.416 18.9219 236.916 18.25C236.431 17.5781 235.837 17.0625 235.134 16.7031C234.431 16.3438 233.627 16.1641 232.72 16.1641C231.814 16.1641 231.002 16.3438 230.283 16.7031C229.58 17.0625 228.986 17.5781 228.502 18.25C228.017 18.9219 227.642 19.75 227.377 20.7344C227.127 21.7188 227.002 22.8281 227.002 24.0625C227.002 26.5938 227.494 28.5469 228.478 29.9219C229.462 31.2969 230.877 31.9844 232.72 31.9844ZM232.72 37.5625C230.736 37.5625 228.955 37.2578 227.377 36.6484C225.798 36.0391 224.462 35.1562 223.369 34C222.275 32.8281 221.439 31.4062 220.861 29.7344C220.283 28.0625 219.994 26.1719 219.994 24.0625C219.994 21.9688 220.283 20.0938 220.861 18.4375C221.455 16.7656 222.298 15.3516 223.392 14.1953C224.502 13.0234 225.837 12.1328 227.4 11.5234C228.978 10.8984 230.752 10.5859 232.72 10.5859C234.689 10.5859 236.455 10.8984 238.017 11.5234C239.595 12.1328 240.931 13.0234 242.025 14.1953C243.134 15.3516 243.978 16.7656 244.556 18.4375C245.15 20.0938 245.447 21.9688 245.447 24.0625C245.447 26.1719 245.158 28.0625 244.58 29.7344C244.002 31.4062 243.166 32.8281 242.072 34C240.978 35.1562 239.642 36.0391 238.064 36.6484C236.486 37.2578 234.705 37.5625 232.72 37.5625ZM246.459 1.28125H253.28V37H246.459V1.28125ZM264.909 32.2656C265.706 32.2656 266.441 32.1484 267.113 31.9141C267.784 31.6797 268.37 31.3516 268.87 30.9297C269.37 30.5078 269.761 30.0156 270.042 29.4531C270.323 28.8906 270.464 28.2812 270.464 27.625V25.7266L265.238 26.0547C262.331 26.2578 260.878 27.2969 260.878 29.1719C260.878 30.1406 261.253 30.8984 262.003 31.4453C262.753 31.9922 263.722 32.2656 264.909 32.2656ZM262.659 37.3984C261.409 37.3984 260.269 37.2188 259.238 36.8594C258.206 36.4844 257.316 35.9609 256.566 35.2891C255.816 34.6016 255.23 33.7812 254.808 32.8281C254.402 31.875 254.198 30.8047 254.198 29.6172C254.198 27.2578 255.058 25.4219 256.777 24.1094C258.495 22.7812 260.972 22.0234 264.206 21.8359L270.464 21.4609V19.3516C270.464 18.2734 270.089 17.4453 269.339 16.8672C268.605 16.2734 267.527 15.9766 266.105 15.9766C264.87 15.9766 263.855 16.1797 263.058 16.5859C262.261 16.9922 261.722 17.5859 261.441 18.3672H255.159C255.269 17.1797 255.613 16.1094 256.191 15.1562C256.784 14.1875 257.573 13.3672 258.558 12.6953C259.542 12.0078 260.698 11.4844 262.027 11.125C263.37 10.7656 264.855 10.5859 266.48 10.5859C268.183 10.5859 269.698 10.7891 271.027 11.1953C272.37 11.5859 273.495 12.1562 274.402 12.9062C275.308 13.6562 275.995 14.5781 276.464 15.6719C276.948 16.75 277.191 17.9766 277.191 19.3516V37H270.581V33.625H270.159C269.488 34.8125 268.488 35.7422 267.159 36.4141C265.847 37.0703 264.347 37.3984 262.659 37.3984ZM288.703 22.4922C287.031 22.3359 285.797 21.8047 285 20.8984C284.219 19.9766 283.828 18.6562 283.828 16.9375V11.3828C283.828 10.4609 283.742 9.69531 283.57 9.08594C283.414 8.46094 283.141 7.96875 282.75 7.60938C282.359 7.23438 281.844 6.96875 281.203 6.8125C280.562 6.65625 279.766 6.57812 278.812 6.57812H277.758V1.42188H280.219C282 1.42188 283.531 1.59375 284.812 1.9375C286.094 2.26562 287.141 2.78906 287.953 3.50781C288.781 4.21094 289.391 5.11719 289.781 6.22656C290.172 7.33594 290.367 8.67188 290.367 10.2344V14.5703C290.367 15.4922 290.43 16.2656 290.555 16.8906C290.695 17.5 290.914 18 291.211 18.3906C291.523 18.7656 291.93 19.0391 292.43 19.2109C292.945 19.3672 293.57 19.4453 294.305 19.4453V25.9375C293.57 25.9375 292.945 26.0234 292.43 26.1953C291.93 26.3516 291.523 26.625 291.211 27.0156C290.914 27.3906 290.695 27.8906 290.555 28.5156C290.43 29.125 290.367 29.8828 290.367 30.7891V35.8984C290.367 37.4922 290.172 38.8594 289.781 40C289.391 41.1406 288.781 42.0703 287.953 42.7891C287.141 43.5234 286.094 44.0625 284.812 44.4062C283.531 44.75 282 44.9219 280.219 44.9219H277.758V39.7891H278.812C279.766 39.7891 280.562 39.7109 281.203 39.5547C281.844 39.3984 282.359 39.1328 282.75 38.7578C283.141 38.3984 283.414 37.9141 283.57 37.3047C283.742 36.6953 283.828 35.9297 283.828 35.0078V28.9141C283.828 27.1172 284.234 25.7109 285.047 24.6953C285.875 23.6641 287.094 23.0703 288.703 22.9141V22.4922Z" fill="black"/>
</svg>
